<?xml version="1.0" encoding="utf-8"?>
<!-- Generator: Adobe Illustrator 15.0.0, SVG Export Plug-In . SVG Version: 6.00 Build 0)  -->
<!DOCTYPE svg PUBLIC "-//W3C//DTD SVG 1.1//EN" "http://www.w3.org/Graphics/SVG/1.1/DTD/svg11.dtd">
<svg version="1.1" id="Layer_1" xmlns="http://www.w3.org/2000/svg" xmlns:xlink="http://www.w3.org/1999/xlink" x="0px" y="0px"
	 width="300px" height="36.27px" viewBox="0 0 300 36.27" enable-background="new 0 0 300 36.27" xml:space="preserve">
<g>
	<path fill="#083C5A" d="M154.523,7.309l-0.021,21.757h-4.595V9.199c0.022-0.66-0.341-1.387-0.865-1.89"/>
	<path fill="#083C5A" d="M147.636,22.609c0.016,1.913-0.519,3.797-2.082,5.157c-2.757,2.092-7.864,2.17-10.397,0.498
		c-3.687-2.69-4.052-7.772-3.157-12.124c0.511-2.226,2.259-4.318,4.452-5.149c2.959-0.997,7.177-1.063,9.369,1.429
		c1.893,1.959,1.842,4.957,1.838,7.639l-11.102,0.018c0.014,2.435-0.371,5.365,1.689,6.825c0.997,0.633,2.558,0.566,3.588,0.068
		c1.462-0.964,1.357-2.78,1.362-4.352 M143.132,18.067c-0.071-1.64,0.265-3.587-0.898-4.849c-0.832-0.797-2.198-1.058-3.39-0.664
		c-2.357,0.832-2.296,3.554-2.287,5.514L143.132,18.067L143.132,18.067z"/>
	<path fill="#083C5A" d="M126.663,29.071l-4.453-0.004l-0.007-15.674c-0.008-0.842-0.362-1.806-0.896-2.497l4.638-0.002
		c0.397,0.93,0.422,2.06,0.544,3.057c0.698-1.296,1.861-2.891,3.422-3.222c0.596-0.099,1.461-0.266,1.926,0.131l-0.232,3.754
		c-1.263-0.166-2.891,0-3.753,1.096c-0.872,1.104-1.131,2.352-1.185,3.679"/>
	<path fill="#083C5A" d="M118.967,5.374l-0.004,23.716l-4.967-0.022V8.037c0-0.929-0.43-1.979-1.096-2.641"/>
	<path fill="#083C5A" d="M105.659,17.403h-4.102l-0.01,11.668L97.19,29.08l-0.018-17.998c0.008-1.862,1.71-2.989,3.173-3.546
		c2.157-0.862,5.081-0.696,7.24,0.035v3.588c-1.428-1.23-3.52-1.959-5.314-1.097c-0.51,0.281-0.698,0.765-0.698,1.295l0.009,3.92
		c-0.007,0,3.138,0.077,4.101-0.166"/>
	<path fill="#083C5A" d="M90.744,28.665c-2.659,1.03-6.411,1.129-8.868-0.398c-3.887-2.691-4.022-7.972-3.224-12.356
		c0.331-1.694,1.462-3.422,3.122-4.418c2.856-1.595,7.491-1.78,10.099,0.131c3.65,3.012,3.854,8.538,2.657,12.855
		C93.967,26.205,92.505,28.002,90.744,28.665 M90.272,19.595c-0.038-2.392,0.082-5.389-1.754-6.643
		c-0.997-0.565-2.691-0.698-3.688-0.033c-0.831,0.498-1.229,1.394-1.428,2.292c-0.232,2.457-0.306,5.149-0.1,7.673
		c0.132,1.604,0.266,3.288,1.894,4.117c1.197,0.465,2.989,0.519,3.819-0.397C90.446,24.679,90.307,21.955,90.272,19.595"/>
	<path fill="#083C5A" d="M72.934,29.067l-5.481,0.014l-5.809-10.249l4.851-6.245c0.298-0.53,0.032-1.225-0.166-1.691h5.435
		c0,0-3.774,4.714-5.602,6.806"/>
	<path fill="#083C5A" d="M61.228,29.067h-4.466V9.896c-0.013-0.997-0.337-1.753-1.018-2.583l5.493-0.009"/>
	<path fill="#083C5A" d="M42.378,10.893c0.444,0.458,0.663,0.944,0.665,1.495c2.258-1.694,5.68-2.491,8.372-1.229
		c1.885,0.857,2.646,2.799,2.673,4.741c0.022,1.532-0.021,13.167-0.021,13.167h-4.513V15.344c-0.1-0.731-0.531-1.363-1.129-1.794
		c-1.893-0.931-3.765,0.198-5.195,1.461c0.021,4.297,0.004,14.06-0.004,14.055l-4.53,0.004l0.004-15.787
		c0-0.831-0.283-1.728-0.917-2.395"/>
	<path fill="#083C5A" d="M32.146,29.089c-0.249-0.5-0.418-0.89-0.498-1.521c-2.227,1.627-5.117,2.49-7.94,1.729
		c-1.628-0.499-2.824-1.893-3.321-3.456c-0.5-1.662-0.333-3.721,0.729-5.082c2.591-2.956,7.143-1.627,9.933-4.251
		c0.599-0.765,0.599-1.96,0.2-2.824c-0.765-1.229-2.358-1.528-3.787-1.296c-0.698,0.232-1.494,0.533-1.86,1.296
		c-0.308,0.856-0.216,1.428-0.225,2.292h-4.127c-0.083-1.521,0.233-2.856,1.396-3.855c2.823-2.158,6.963-2.067,10.285-1.038
		c1.329,0.465,3.077,1.93,3.077,3.297c-0.017,4.061-0.008,8.179,0,12.157c0.099,0.865,0.456,1.694,0.622,2.551 M31.549,25.31
		c-0.009-2.184,0-4.492-0.009-6.61c-1.495,0.897-3.347,1.295-4.974,1.927c-1.428,0.631-1.694,2.192-1.662,3.489
		c0.101,1.062,0.398,2.191,1.395,2.688c1.296,0.699,2.856,0.169,3.953-0.53L31.549,25.31z"/>
	<path fill="#083C5A" d="M15.371,28.2c-1.594,0.763-3.421,0.888-5.349,0.88H0.854L0.841,9.995C0.842,9.044,0.625,7.956,0,7.309
		c0,0,7.93-0.021,12.149-0.005c1.993,0.167,4.086,1.164,4.816,3.189c0.499,1.461,0.366,3.255-0.564,4.519
		c-1.197,1.328-2.791,1.86-4.385,2.226c2.525,0.266,5.215,1.429,6.178,4.02C19.024,23.848,18.028,26.972,15.371,28.2 M13.079,24.114
		c0.365-1.463,0.034-3.091-0.93-4.252c-1.656-1.719-4.073-1.192-6.287-1.284L5.85,26.619c1.728,0.396,4.007,0.484,5.535-0.38
		C12.149,25.775,12.847,24.978,13.079,24.114 M12.215,14.182c0.365-1.13,0.199-2.492-0.532-3.422
		c-1.578-1.703-3.529-1.142-5.825-1.254l0.013,6.968c1.774-0.067,3.619,0.265,5.047-0.597
		C11.517,15.477,12.016,14.846,12.215,14.182"/>
	<path fill="#083C5A" d="M186.082,29.067V15.344c-0.102-0.73-0.531-1.363-1.129-1.794c-1.895-0.93-3.766,0.199-5.195,1.462
		c0.021,4.298,0.006,14.06-0.004,14.056l-4.529,0.004l0.002-15.788c0-0.83-0.281-1.727-0.916-2.395l4.594,0.005
		c0.445,0.457,0.611,0.917,0.666,1.495c2.26-1.694,5.68-2.492,8.373-1.23c1.885,0.859,2.646,2.8,2.672,4.744
		c0.021,1.531,0.006,13.166,0.006,13.166L186.082,29.067"/>
	<path fill="#083C5A" d="M168.676,29.089c-0.248-0.499-0.42-0.889-0.5-1.52c-2.225,1.626-5.115,2.49-7.938,1.727
		c-1.629-0.499-2.824-1.894-3.322-3.455c-0.498-1.662-0.332-3.721,0.73-5.082c2.592-2.957,7.141-1.629,9.932-4.251
		c0.598-0.766,0.598-1.96,0.199-2.825c-0.764-1.229-2.359-1.527-3.787-1.296c-0.697,0.232-1.494,0.532-1.859,1.296
		c-0.309,0.855-0.215,1.429-0.227,2.292h-4.125c-0.086-1.52,0.232-2.856,1.395-3.854c2.824-2.16,6.965-2.067,10.285-1.038
		c1.328,0.465,3.076,1.931,3.076,3.296c-0.018,4.062-0.01,8.179,0,12.158c0.021,0.916,0.328,1.747,0.623,2.552 M168.068,18.698
		c-1.494,0.897-3.346,1.296-4.975,1.928c-1.428,0.631-1.693,2.191-1.66,3.488c0.1,1.062,0.396,2.192,1.395,2.689
		c1.295,0.699,2.857,0.168,3.953-0.53l1.27-0.964L168.068,18.698z"/>
	<path fill="#083C5A" d="M295.334,17.851c0,9.861-14.568,17.852-32.533,17.852c-17.967,0-32.533-7.991-32.533-17.852
		C230.268,7.992,244.834,0,262.801,0S295.334,7.992,295.334,17.851 M262.803,1.174c-16.021,0-29.012,7.467-29.012,16.677
		c0,9.211,12.988,16.678,29.012,16.678c16.018,0,29.008-7.467,29.008-16.678C291.811,8.642,278.82,1.174,262.803,1.174"/>
	<path fill="#083C5A" d="M289.109,17.852c0,7.849-11.779,14.366-26.307,14.366c-14.531,0-26.143-6.517-26.143-14.366
		c0-7.848,11.486-14.419,26.018-14.419C277.205,3.433,289.109,10.004,289.109,17.852 M262.764,2.402
		c-15.414,0-27.453,7.208-27.453,15.533c0,8.327,12.164,15.326,27.578,15.326c15.412,0,27.494-6.999,27.494-15.326
		C290.383,9.61,278.178,2.402,262.764,2.402"/>
	<path fill="#083C5A" d="M262.803,31.309c0.082-0.337,0.293-0.639,0.514-0.917c0.996-1.031,2.258-1.429,3.52-1.861
		c2.992-0.93,6.18-1.37,9.039-2.872c1.059-0.575,0.965-0.952,0.969-4.878c-0.008,0.027-0.373,0.609-0.674,0.876
		c-1.094,1.029-2.49,1.474-3.887,1.892c-3.033,0.913-6.195,1.188-8.854,2.949c-0.539,0.353-0.629,0.807-0.629,0.807
		s-0.096-0.454-0.635-0.807c-2.656-1.76-5.818-2.036-8.852-2.949c-1.395-0.418-2.791-0.862-3.887-1.892
		c-0.299-0.266-0.666-0.848-0.672-0.876c0.002,3.926-0.092,4.304,0.965,4.878c2.863,1.502,6.051,1.942,9.039,2.872
		c1.266,0.432,2.525,0.83,3.521,1.861C262.506,30.67,262.717,30.974,262.803,31.309"/>
	<path fill="#083C5A" d="M262.803,24.458c0.082-0.336,0.293-0.638,0.514-0.918c0.996-1.029,2.258-1.428,3.52-1.86
		c2.992-0.931,6.18-1.371,9.039-2.873c1.059-0.575,0.965-0.952,0.969-4.879c-0.008,0.03-0.373,0.61-0.674,0.876
		c-1.094,1.029-2.49,1.474-3.887,1.893c-3.033,0.912-6.195,1.187-8.854,2.948c-0.539,0.352-0.629,0.806-0.629,0.806
		s-0.096-0.452-0.635-0.806c-2.656-1.76-5.818-2.036-8.852-2.948c-1.395-0.419-2.791-0.864-3.887-1.893
		c-0.299-0.266-0.666-0.847-0.672-0.876c0.002,3.927-0.092,4.304,0.965,4.879c2.863,1.502,6.051,1.942,9.039,2.873
		c1.266,0.432,2.525,0.831,3.521,1.86C262.506,23.82,262.717,24.122,262.803,24.458"/>
	<path fill="#083C5A" d="M262.803,17.772c0.082-0.336,0.293-0.639,0.514-0.917c0.996-1.03,2.258-1.429,3.52-1.861
		c2.992-0.929,6.18-1.37,9.039-2.873c1.059-0.575,0.965-0.954,0.969-4.879c-0.008,0.029-0.373,0.61-0.674,0.877
		c-1.094,1.029-2.49,1.473-3.887,1.892c-3.033,0.913-6.195,1.188-8.854,2.949c-0.539,0.353-0.629,0.806-0.629,0.806
		s-0.096-0.453-0.635-0.806c-2.656-1.76-5.818-2.036-8.852-2.949c-1.395-0.419-2.791-0.863-3.887-1.892
		c-0.299-0.266-0.666-0.847-0.672-0.877c0.002,3.926-0.092,4.305,0.965,4.879c2.863,1.502,6.051,1.943,9.039,2.873
		c1.266,0.433,2.525,0.832,3.521,1.861C262.506,17.134,262.717,17.437,262.803,17.772"/>
	<path fill="#083C5A" d="M208.828,7.313l-0.004,21.776h-4.006l-0.316-1.287c-1.795,1.66-4.834,2.126-7.092,1.161
		c-3.49-1.329-4.619-5.147-4.586-8.702c-0.066-3.622,0.697-7.376,4.086-9.271c2.258-1.228,5.436-1.062,7.43,0.532
		c0.002-1.528-0.154-2.981-0.887-4.21 M204.354,14.347c-0.234-0.631-0.727-1-1.33-1.263c-1.029-0.432-2.357-0.531-3.322,0.1
		c-0.861,0.632-1.342,1.479-1.607,2.413c-0.551,1.662-0.596,5.976-0.033,8.057c0.248,0.918,0.535,1.801,1.078,2.552
		c0.529,0.531,1.293,0.858,2.025,0.796c1.195-0.165,2.459-0.63,3.189-1.659V14.347z"/>
</g>
</svg>
